# AST/ASF file generated using VICON BodyLanguage
# -----------------------------------------------
:version 1.10
:name VICON
:units
  mass 1.0
  length 0.45
  angle deg
:documentation
   .ast/.asf automatically generated from VICON data using
   VICON BodyBuilder and BodyLanguage model FoxedUp or BRILLIANT.MOD
:root
   order TX TY TZ RX RY RZ
   axis XYZ
   position 0 0 0  
   orientation 0 0 0 
:bonedata
  begin
     id 1 
     name lhipjoint
     direction 0.62366 -0.717238 0.310833 
     length 2.53602 
     axis 0 0 0  XYZ
  end
  begin
     id 2 
     name lfemur
     direction 0.34202 -0.939693 0  
     length 7.40817  
     axis 0 0 20  XYZ
    dof rx ry rz
    limits (-160.0 20.0)
           (-70.0 70.0)
           (-60.0 70.0)
  end
  begin
     id 3 
     name ltibia
     direction 0.34202 -0.939693 0   
     length 7.7045   
     axis 0 0 20   XYZ
    dof rx
    limits (-10.0 170.0)
  end
  begin
     id 4 
     name lfoot
     direction 0.0673888 -0.185149 0.980397   
     length 2.09456   
     axis -90 7.62852e-016 20   XYZ
    dof rx rz
    limits (-45.0 90.0)
           (-70.0 20.0)
  end
  begin
     id 5 
     name ltoes
     direction 1.53575e-011 -4.21994e-011 1   
     length 1.05543   
     axis -90 7.62852e-016 20   XYZ
    dof rx
    limits (-90.0 20.0)
  end
  begin
     id 6 
     name rhipjoint
     direction -0.489018 -0.800347 0.346851   
     length 2.27268  
     axis 0 0 0  XYZ 
  end
  begin
     id 7 
     name rfemur
     direction -0.34202 -0.939693 0   
     length 7.55487   
     axis 0 0 -20   XYZ
    dof rx ry rz
    limits (-160.0 20.0)
           (-70.0 70.0)
           (-70.0 60.0)
  end
  begin
     id 8 
     name rtibia
     direction -0.34202 -0.939693 0   
     length 7.78969   
     axis 0 0 -20   XYZ
    dof rx
    limits (-10.0 170.0)
 end
 begin
     id 9 
     name rfoot
     direction -0.0859318 -0.236096 0.967923   
     length 2.19143  
     axis -90 -7.62852e-016 -20   XYZ
    dof rx rz
    limits (-45.0 90.0)
           (-20.0 70.0)
  end
  begin
     id 10 
     name rtoes
     direction -1.53538e-011 -4.21989e-011 1   
     length 1.09845   
     axis -90 -7.62852e-016 -20   XYZ
    dof rx
    limits (-90.0 20.0)
  end
  begin
     id 11 
     name lowerback
     direction -0.00762546 0.998978 -0.0445553   
     length 1.98161   
     axis 0 0 0   XYZ
    dof rx ry rz
    limits (-20.0 45.0)
           (-30.0 30.0)
           (-30.0 30.0)
  end
  begin
     id 12 
     name upperback
     direction 0.0422361 0.998867 -0.0219156   
     length 1.97558   
     axis 0 0 0   XYZ
    dof rx ry rz
    limits (-20.0 45.0)
           (-30.0 30.0)
           (-30.0 30.0)
  end
  begin
     id 13 
     name thorax
     direction 0.0442465 0.999021 7.47603e-005   
     length 1.97799   
     axis 0 0 0   XYZ
    dof rx ry rz
    limits (-20.0 45.0)
           (-30.0 30.0)
           (-30.0 30.0)
  end
  begin
     id 14 
     name lowerneck
     direction 0.00312169 0.984641 0.174564   
     length 1.78995   
     axis 0 0 0   XYZ
    dof rx ry rz
    limits (-20.0 45.0)
           (-30.0 30.0)
           (-30.0 30.0)
  end
  begin
     id 15 
     name upperneck
     direction -0.0383028 0.985255 -0.166749   
     length 1.83053   
     axis 0 0 0   XYZ
    dof rx ry rz
    limits (-20.0 45.0)
           (-30.0 30.0)
           (-30.0 30.0)
  end
  begin
     id 16
     name head
     direction -0.0129546 0.997059 -0.0755386  
     length 1.84088  
     axis 0 0 0   XYZ
    dof rx ry rz
    limits (-20.0 45.0)
           (-30.0 30.0)
           (-30.0 30.0)
  end
  begin
     id 17 
     name lclavicle
     direction 0.912857 0.370519 -0.171488  
     length 3.51279  
     axis 0 0 0   XYZ
    dof ry rz
    limits (-20.0 10.0)
           (0.0 20.0)
  end
  begin
     id 18 
     name lhumerus
     direction 1 -4.48962e-011 3.64361e-027   
     length 4.95663   
     axis 180 -30 -90   XYZ
    dof rx ry rz
    limits (-60.0 90.0)
           (-90.0 90.0)
           (-90.0 90.0)
  end
  begin
     id 19
     name lradius
     direction 1 -4.48974e-011 5.97202e-027   
     length 3.38177   
     axis 180 -30 -90   XYZ
    dof rx
    limits (-10.0 170.0)
  end
  begin
     id 20
     name lwrist
     direction 1 -4.4896e-011 9.83288e-027   
     length 1.69088   
     axis -9.31221e-015 90 90   XYZ
    dof ry
    limits (-180.0 0.0)
 end
  begin
     id 21 
     name lhand
     direction 1 -4.4902e-011 1.96551e-026   
     length 0.662909   
     axis -1.25475e-014 90 90   XYZ
    dof rx rz
    limits (-90.0 90.0)
           (-45.0 45.0)
  end
  begin
     id 22 
     name lfingers
     direction 1 -4.48971e-011 3.93277e-026   
     length 0.534454   
     axis -2.50945e-014 90 90   XYZ
    dof rx
    limits (0.0 90.0)
  end
  begin
     id 23
     name lthumb
     direction 0.707107 -6.34933e-011 0.707107   
     length 0.767373   
     axis -90 45 -4.80359e-014   XYZ
    dof rx rz
    limits (-45.0 45.0)
           (-45.0 45.0)
  end
  begin
     id 24 
     name rclavicle
     direction -0.900919 0.395364 -0.178976   
     length 3.40627  
     axis 0 0 0   XYZ 
    dof ry rz
    limits (-10.0 20.0)
           (-20.0 0.0)
  end
  begin
     id 25 
     name rhumerus
     direction -1 -4.48969e-011 1.03875e-027  
     length 5.08365   
     axis 180 30 90   XYZ
    dof rx ry rz
    limits (-90.0 60.0)
           (-90.0 90.0)
           (-90.0 90.0)
  end
  begin
     id 26 
     name rradius
     direction -1 -4.48951e-011 5.02733e-027   
     length 3.35984   
     axis 180 30 90   XYZ
    dof rx
    limits (-10.0 170.0)
  end
  begin
     id 27 
     name rwrist
     direction -1 -4.49011e-011 9.82828e-027   
     length 1.67992   
     axis -9.31221e-015 -90 -90   XYZ
    dof ry
    limits (-180.0 0.0)
  end
  begin
     id 28
     name rhand
     direction -1 -4.48894e-011 1.96774e-026   
     length 0.820764   
     axis -1.25475e-014 -90 -90   XYZ
    dof rx rz
    limits (-90.0 90.0)
           (-45.0 45.0)
  end
  begin
     id 29
     name rfingers
     direction -1 -4.49095e-011 3.92833e-026   
     length 0.661721   
     axis -2.50945e-014 -90 -90   XYZ
    dof rx
    limits (0.0 90.0)
  end
  begin
     id 30
     name rthumb
     direction -0.707107 -6.34881e-011 0.707107   
     length 0.950103   
     axis -90 -45 4.80359e-014   XYZ
    dof rx rz
    limits (-45.0 45.0)
           (-45.0 45.0)
  end
:hierarchy
  begin
    root lhipjoint rhipjoint lowerback
    lhipjoint lfemur
    lfemur ltibia
    ltibia lfoot
    lfoot ltoes
    rhipjoint rfemur
    rfemur rtibia
    rtibia rfoot
    rfoot rtoes
    lowerback upperback
    upperback thorax
    thorax lowerneck lclavicle rclavicle
    lowerneck upperneck
    upperneck head
    lclavicle lhumerus
    lhumerus lradius
    lradius lwrist
    lwrist lhand lthumb
    lhand lfingers
    rclavicle rhumerus
    rhumerus rradius
    rradius rwrist
    rwrist rhand rthumb
    rhand rfingers
  end

#!OML:ASF I:\golf\golf\golf 2\Subject 1\2002-09-07\Subject1.ASF
:FULLY-SPECIFIED
:DEGREES
1
root -7.272 17.7845 0.316119 -62.1908 88.57 -77.0016
lowerback 2.6163 1.83107 -3.25377
upperback 3.14281 2.4425 3.78035
thorax 1.47434 1.15662 5.70738
lowerneck -15.4474 -0.693558 1.43506
upperneck 36.5237 1.60732 -4.2165
head 15.4678 0.755787 -1.63928
rclavicle 4.37326e-015 6.36111e-015
rhumerus -6.40466 0.21447 -102.073
rradius 21.0739
rwrist -35.8291
rhand -16.329 -5.41266
rfingers 7.12502
rthumb 9.88276 -35.1607
lclavicle 4.37326e-015 6.36111e-015
lhumerus -11.0504 -44.8817 110.434
lradius 27.244
lwrist 42.9373
lhand -13.9302 70.3229
lfingers 7.12502
lthumb -167.804 80.0527
rfemur -29.3829 -1.86722 11.0284
rtibia 31.1869
rfoot -10.5598 -8.80878
rtoes -7.23862
lfemur -28.1416 4.73811 -10.9458
ltibia 28.3848
lfoot -11.8442 -3.74092
ltoes -18.8958
2
root -7.26743 17.7838 0.318699 -62.8533 88.6659 -77.6903
lowerback 2.55375 1.80243 -3.36186
upperback 3.1637 2.4038 3.79369
thorax 1.53145 1.13312 5.78693
lowerneck -15.4047 -0.691594 1.36606
upperneck 36.4535 1.62497 -4.21655
head 15.4239 0.752657 -1.62252
rclavicle -1.59028e-015 4.77083e-015
rhumerus -6.32134 0.155673 -102.072
rradius 21.0112
rwrist -35.7035
rhand -16.3328 -5.41274
rfingers 7.12502
rthumb 9.87911 -35.161
lclavicle -1.59028e-015 4.77083e-015
lhumerus -11.0357 -44.4793 110.475
lradius 27.1207
lwrist 42.4564
lhand -12.9023 68.4413
lfingers 7.12502
lthumb -166.813 81.9958
rfemur -29.4241 -1.90531 10.9391
rtibia 31.2604
rfoot -10.597 -8.82591
rtoes -7.11356
lfemur -28.1977 4.79232 -11.0904
ltibia 28.3117
lfoot -11.8272 -3.67959
ltoes -20.3431
3
root -7.26215 17.7832 0.322028 -63.991 88.7065 -78.819
lowerback 2.51446 1.79165 -3.42352
upperback 3.1944 2.3897 3.81303
thorax 1.58417 1.12292 5.84512
lowerneck -15.3721 -0.716109 1.36667
upperneck 36.3958 1.60399 -4.27574
head 15.3876 0.73522 -1.65025
rclavicle -3.18055e-014 -3.65764e-014
rhumerus -6.24982 -0.165092 -102.038
rradius 20.9678
rwrist -35.7617
rhand -15.9297 -5.24267
rfingers 7.12502
rthumb 10.2679 -34.972
lclavicle -3.18055e-014 -3.65764e-014
lhumerus -11.0617 -44.7935 110.498
lradius 27.2568
lwrist 42.3829
lhand -12.8508 68.3544
lfingers 7.12502
lthumb -166.763 82.0859
rfemur -29.3967 -1.86623 10.8952
rtibia 31.285
rfoot -10.6395 -8.91487
rtoes -7.05529
lfemur -28.1799 4.80935 -11.1211
ltibia 28.3166
lfoot -11.9121 -3.69477
ltoes -20.962
4
root -7.25747 17.7821 0.32449 -66.2443 88.7133 -81.0416
lowerback 2.56287 1.79621 -3.41495
upperback 3.19391 2.39537 3.81913
thorax 1.55588 1.12684 5.84474
lowerneck -15.4067 -0.742176 1.42842
upperneck 36.4566 1.58404 -4.35568
head 15.4258 0.725935 -1.69986
rclavicle -2.10712e-014 -6.36111e-015
rhumerus -6.20248 -0.83835 -101.976
rradius 20.917
rwrist -35.7261
rhand -15.2731 -5.24364
rfingers 7.12502
rthumb 10.9014 -34.9407
lclavicle -2.10712e-014 -6.36111e-015
lhumerus -11.1872 -45.566 110.542
lradius 27.5247
lwrist 42.3714
lhand -12.9418 68.3636
lfingers 7.12502
lthumb -166.851 82.071
rfemur -29.3472 -1.83657 10.9053
rtibia 31.3237
rfoot -10.6784 -9.0109
rtoes -7.13136
lfemur -28.1355 4.82559 -11.1154
ltibia 28.2911
lfoot -11.8442 -3.76254
ltoes -20.3027
5
root -7.25331 17.7821 0.325382 -68.3888 88.7424 -83.1708
lowerback 2.64456 1.80835 -3.41269
upperback 3.16619 2.41021 3.82184
thorax 1.47947 1.13689 5.84223
lowerneck -15.4569 -0.752648 1.46206
upperneck 36.5713 1.59057 -4.39767
head 15.4952 0.730558 -1.72475
rclavicle 1.27222e-014 -7.95139e-016
rhumerus -6.17826 -1.43301 -101.931
rradius 20.8672
rwrist -35.3742
rhand -14.952 -5.39785
rfingers 7.12502
rthumb 11.211 -35.0783
lclavicle 1.27222e-014 -7.95139e-016
lhumerus -11.3093 -45.7411 110.662
lradius 27.6141
lwrist 42.1902
lhand -13.1406 68.3547
lfingers 7.12502
lthumb -167.042 82.0677
rfemur -29.3158 -1.90465 10.9092
rtibia 31.349
rfoot -10.6996 -9.0187
rtoes -7.37015
lfemur -28.1122 4.74141 -11.1212
ltibia 28.2798
lfoot -11.7883 -3.74643
ltoes -19.7654
6
root -7.24933 17.7829 0.326613 -67.801 88.7772 -82.6085
lowerback 2.63501 1.8179 -3.43881
upperback 3.16328 2.42257 3.81854
thorax 1.47943 1.14257 5.85366
lowerneck -15.505 -0.759976 1.43042
upperneck 36.6435 1.59112 -4.37611
head 15.5421 0.730469 -1.71133
rclavicle 1.55052e-014 3.26007e-014
rhumerus -6.15471 -1.62682 -101.948
rradius 20.8927
rwrist -35.1645
rhand -15.0215 -5.56671
rfingers 7.12502
rthumb 11.144 -35.2508
lclavicle 1.55052e-014 3.26007e-014
lhumerus -11.2799 -45.5143 110.693
lradius 27.539
lwrist 41.9586
lhand -13.2033 68.3272
lfingers 7.12502
lthumb -167.103 82.0914
rfemur -29.3475 -1.88731 10.8642
rtibia 31.3741
rfoot -10.7213 -9.03202
rtoes -7.48031
lfemur -28.113 4.69696 -11.1484
ltibia 28.2652
lfoot -11.8178 -3.72469
ltoes -19.7436
7
root -7.24532 17.783 0.327675 -66.6162 88.7674 -81.4491
lowerback 2.60115 1.81404 -3.41913
upperback 3.17709 2.41815 3.80321
thorax 1.51457 1.13957 5.82798
lowerneck -15.5401 -0.758217 1.48327
upperneck 36.6602 1.58339 -4.39595
head 15.5587 0.73105 -1.73134
rclavicle 1.15295e-014 3.02153e-014
rhumerus -6.13301 -1.58702 -102.008
rradius 20.9247
rwrist -35.2114
rhand -15.005 -5.65953
rfingers 7.12502
rthumb 11.1599 -35.3428
lclavicle 1.15295e-014 3.02153e-014
lhumerus -11.209 -45.426 110.603
lradius 27.4921
lwrist 41.817
lhand -13.1295 68.2035
lfingers 7.12502
lthumb -167.032 82.2196
rfemur -29.3798 -1.79892 10.8458
rtibia 31.4025
rfoot -10.758 -9.08441
rtoes -7.40225
lfemur -28.1072 4.75522 -11.1527
ltibia 28.2393
lfoot -11.8009 -3.77618
ltoes -19.6263
8
root -7.24076 17.7836 0.330295 -65.7672 88.7412 -80.6079
lowerback 2.58034 1.82399 -3.40671
upperback 3.1834 2.43186 3.79361
thorax 1.53185 1.14613 5.8114
lowerneck -15.5153 -0.766168 1.55938
upperneck 36.6417 1.55097 -4.41512
head 15.5423 0.725316 -1.75833
rclavicle -1.90833e-014 -4.13472e-014
rhumerus -6.14556 -1.36598 -102.026
rradius 20.9639
rwrist -35.4593
rhand -14.9278 -5.71277
rfingers 7.12502
rthumb 11.2344 -35.392
lclavicle -1.90833e-014 -4.13472e-014
lhumerus -11.2092 -45.578 110.525
lradius 27.5419
lwrist 41.8996
lhand -13.0313 68.1412
lfingers 7.12502
lthumb -166.937 82.2879
rfemur -29.3851 -1.75694 10.877
rtibia 31.4249
rfoot -10.7584 -9.14806
rtoes -7.69263
lfemur -28.0877 4.87108 -11.1433
ltibia 28.2187
lfoot -11.7471 -3.86617
ltoes -19.4395
9
root -7.23574 17.785 0.334189 -63.5927 88.7927 -78.4601
lowerback 2.51626 1.8409 -3.50637
upperback 3.18216 2.45371 3.784
thorax 1.56051 1.1541 5.86008
lowerneck -15.4368 -0.765269 1.53498
upperneck 36.6165 1.54421 -4.3707
head 15.5101 0.726569 -1.73491
rclavicle 4.77083e-015 -2.3059e-014
rhumerus -6.17493 -0.999289 -101.983
rradius 21.0367
rwrist -35.8456
rhand -15.024 -5.80598
rfingers 7.12502
rthumb 11.1416 -35.4902
lclavicle 4.77083e-015 -2.3059e-014
lhumerus -11.2524 -45.5067 110.573
lradius 27.5362
lwrist 41.8414
lhand -12.9309 68.0783
lfingers 7.12502
lthumb -166.84 82.357
rfemur -29.4102 -1.76559 10.8274
rtibia 31.4369
rfoot -10.7482 -9.12756
rtoes -7.83573
lfemur -28.1058 4.98319 -11.2208
ltibia 28.229
lfoot -11.7527 -3.98495
ltoes -19.0481
10
root -7.23141 17.7864 0.333642 -63.2561 88.85 -78.1721
lowerback 2.46136 1.83662 -3.56577
upperback 3.15191 2.44766 3.78859
thorax 1.55839 1.15012 5.90022
lowerneck -15.3353 -0.731792 1.5059
upperneck 36.6154 1.61572 -4.37965
head 15.4888 0.754572 -1.72001
rclavicle 1.51076e-014 -1.98785e-014
rhumerus -6.23632 -0.626371 -101.924
rradius 21.1086
rwrist -36.2394
rhand -15.2571 -5.87667
rfingers 7.12502
rthumb 10.9168 -35.5729
lclavicle 1.51076e-014 -1.98785e-014
lhumerus -11.3194 -45.041 110.744
lradius 27.3984
lwrist 41.5072
lhand -12.8335 67.9528
lfingers 7.12502
lthumb -166.746 82.4886
rfemur -29.4554 -1.86926 10.779
rtibia 31.4449
rfoot -10.7433 -8.98999
rtoes -7.50892
lfemur -28.1708 4.94196 -11.2784
ltibia 28.2664
lfoot -11.7695 -4.01579
ltoes -18.4922
11
root -7.22829 17.7861 0.33241 -66.018 88.7615 -80.9645
lowerback 2.46732 1.85597 -3.43005
upperback 3.10948 2.4754 3.82262
thorax 1.51114 1.16869 5.85646
lowerneck -15.2632 -0.744146 1.46513
upperneck 36.623 1.62004 -4.38377
head 15.4755 0.753234 -1.71292
rclavicle -2.26615e-014 5.56597e-015
rhumerus -6.30306 -0.505457 -101.881
rradius 21.1762
rwrist -36.5053
rhand -15.4517 -5.91908
rfingers 7.12502
rthumb 10.7291 -35.6251
lclavicle -2.26615e-014 5.56597e-015
lhumerus -11.4047 -44.848 110.895
lradius 27.3192
lwrist 41.4514
lhand -12.7956 67.8934
lfingers 7.12502
lthumb -166.71 82.5504
rfemur -29.4778 -1.91168 10.9009
rtibia 31.4491
rfoot -10.7263 -8.9423
rtoes -7.2212
lfemur -28.2331 4.96188 -11.1827
ltibia 28.3104
lfoot -11.7946 -4.00055
ltoes -18.8109
12
root -7.22564 17.7845 0.334745 -67.9329 88.6362 -82.8854
lowerback 2.47656 1.89709 -3.27994
upperback 3.10419 2.53288 3.8518
thorax 1.49768 1.2011 5.79962
lowerneck -15.277 -0.792834 1.43207
upperneck 36.6545 1.5474 -4.34365
head 15.4902 0.724773 -1.70286
rclavicle -9.93923e-015 7.15625e-015
rhumerus -6.28096 -0.64233 -101.864
rradius 21.2176
rwrist -36.5155
rhand -15.5051 -5.99819
rfingers 7.12502
rthumb 10.6775 -35.7069
lclavicle -9.93923e-015 7.15625e-015
lhumerus -11.3983 -45.0808 110.877
lradius 27.3788
lwrist 41.7883
lhand -12.8238 68.0036
lfingers 7.12502
lthumb -166.737 82.4383
rfemur -29.4721 -1.88202 11.0626
rtibia 31.4417
rfoot -10.7092 -8.98756
rtoes -7.39916
lfemur -28.266 5.11705 -11.0722
ltibia 28.3517
lfoot -11.8206 -4.03577
ltoes -19.6672
13
root -7.22223 17.7851 0.337738 -66.9324 88.618 -81.8851
lowerback 2.4473 1.92578 -3.28876
upperback 3.12747 2.57163 3.84758
thorax 1.53319 1.21911 5.80116
lowerneck -15.3495 -0.808807 1.482
upperneck 36.7372 1.51683 -4.34601
head 15.5471 0.719354 -1.72008
rclavicle 3.97569e-015 -1.98785e-014
rhumerus -6.19063 -0.857503 -101.872
rradius 21.1564
rwrist -36.219
rhand -15.3681 -6.05875
rfingers 7.12502
rthumb 10.8097 -35.7606
lclavicle 3.97569e-015 -1.98785e-014
lhumerus -11.311 -45.4361 110.745
lradius 27.5082
lwrist 42.1844
lhand -12.8902 68.3115
lfingers 7.12502
lthumb -166.801 82.1263
rfemur -29.4598 -1.8615 11.0866
rtibia 31.4288
rfoot -10.7116 -8.97144
rtoes -7.54517
lfemur -28.2501 5.10221 -11.0364
ltibia 28.3833
lfoot -11.8055 -4.00209
ltoes -19.6018
14
root -7.21831 17.7878 0.340756 -64.1297 88.6261 -79.0669
lowerback 2.40463 1.94401 -3.41945
upperback 3.16603 2.59555 3.87832
thorax 1.58775 1.2264 5.91048
lowerneck -15.3648 -0.797513 1.50699
upperneck 36.7523 1.54182 -4.38324
head 15.5599 0.728367 -1.73654
rclavicle -1.31198e-014 3.4191e-014
rhumerus -6.10636 -1.11683 -101.841
rradius 21.0213
rwrist -35.7562
rhand -15.031 -6.00573
rfingers 7.12502
rthumb 11.1348 -35.6903
lclavicle -1.31198e-014 3.4191e-014
lhumerus -11.229 -45.4981 110.693
lradius 27.5691
lwrist 42.2806
lhand -12.9716 68.4322
lfingers 7.12502
lthumb -166.879 82.0005
rfemur -29.4319 -1.75378 11.0395
rtibia 31.4164
rfoot -10.7351 -8.96774
rtoes -7.13143
lfemur -28.1968 5.02272 -11.0194
ltibia 28.3998
lfoot -11.8118 -3.92772
ltoes -19.3536
15
root -7.21597 17.7888 0.341969 -62.9092 88.6105 -77.8366
lowerback 2.36298 1.93285 -3.56078
upperback 3.20831 2.58117 3.97222
thorax 1.64754 1.21395 6.09355
lowerneck -15.3284 -0.770676 1.44727
upperneck 36.6932 1.60631 -4.4125
head 15.5255 0.74221 -1.7259
rclavicle 9.54166e-015 1.90833e-014
rhumerus -6.07738 -1.13526 -101.736
rradius 20.9999
rwrist -35.6552
rhand -14.7126 -5.93208
rfingers 7.12502
rthumb 11.4419 -35.5999
lclavicle 9.54166e-015 1.90833e-014
lhumerus -11.1332 -45.2076 110.73
lradius 27.5355
lwrist 42.0961
lhand -13.0237 68.1139
lfingers 7.12502
lthumb -166.93 82.3156
rfemur -29.4114 -1.69305 11.0357
rtibia 31.395
rfoot -10.7333 -8.9917
rtoes -6.85504
lfemur -28.1696 4.98707 -10.9904
ltibia 28.4061
lfoot -11.774 -3.90176
ltoes -19.0818
